<?xml version="1.0"?>
<svg xmlns="http://www.w3.org/2000/svg" xmlns:xlink="http://www.w3.org/1999/xlink" xmlns:svgjs="http://svgjs.com/svgjs" version="1.1" width="512" height="512" x="0" y="0" viewBox="0 0 512 512" style="enable-background:new 0 0 512 512" xml:space="preserve" class=""><g>
<path xmlns="http://www.w3.org/2000/svg" style="" d="M295.467,25.6v157.867c0,13.867-11.733,25.6-25.6,25.6H134.4L34.133,261.333v-52.267H25.6  c-13.867,0-25.6-11.733-25.6-25.6V25.6C0,11.733,11.733,0,25.6,0h245.333C284.8,0,295.467,11.733,295.467,25.6z" fill="#ffa292" data-original="#f3705a" class=""/>
<g xmlns="http://www.w3.org/2000/svg">
	<circle style="" cx="69.333" cy="104.533" r="27.733" fill="#357dde" data-original="#ffffff" class=""/>
	<circle style="" cx="148.267" cy="104.533" r="27.733" fill="#357dde" data-original="#ffffff" class=""/>
	<circle style="" cx="227.2" cy="104.533" r="27.733" fill="#357dde" data-original="#ffffff" class=""/>
</g>
<path xmlns="http://www.w3.org/2000/svg" style="" d="M216.533,88.533v156.8c0,13.867,11.733,25.6,25.6,25.6h136.533L478.933,323.2v-52.267h7.467  c13.867,0,25.6-11.733,25.6-25.6v-156.8c0-13.867-11.733-25.6-25.6-25.6H241.067C227.2,62.933,216.533,74.667,216.533,88.533z" fill="#ffde8a" data-original="#ffd15c" class=""/>
<g xmlns="http://www.w3.org/2000/svg">
	<circle style="" cx="442.667" cy="167.467" r="27.733" fill="#357dde" data-original="#ffffff" class=""/>
	<circle style="" cx="363.733" cy="167.467" r="27.733" fill="#357dde" data-original="#ffffff" class=""/>
	<circle style="" cx="284.8" cy="167.467" r="27.733" fill="#357dde" data-original="#ffffff" class=""/>
</g>
<path xmlns="http://www.w3.org/2000/svg" style="" d="M371.2,277.333V435.2c0,13.867-11.733,25.6-25.6,25.6h-84.267l-38.4,51.2l-38.4-52.267h-83.2  c-13.867,0-25.6-11.733-25.6-25.6v-156.8c0-13.867,11.733-25.6,25.6-25.6h245.333C360.533,251.733,371.2,263.467,371.2,277.333z" fill="#ffffff" data-original="#66c6b9" class=""/>
<g xmlns="http://www.w3.org/2000/svg">
	<circle style="" cx="301.867" cy="356.267" r="27.733" fill="#357dde" data-original="#ffffff" class=""/>
	<circle style="" cx="224" cy="356.267" r="27.733" fill="#357dde" data-original="#ffffff" class=""/>
	<circle style="" cx="145.067" cy="356.267" r="27.733" fill="#357dde" data-original="#ffffff" class=""/>
</g>
<g xmlns="http://www.w3.org/2000/svg">
</g>
<g xmlns="http://www.w3.org/2000/svg">
</g>
<g xmlns="http://www.w3.org/2000/svg">
</g>
<g xmlns="http://www.w3.org/2000/svg">
</g>
<g xmlns="http://www.w3.org/2000/svg">
</g>
<g xmlns="http://www.w3.org/2000/svg">
</g>
<g xmlns="http://www.w3.org/2000/svg">
</g>
<g xmlns="http://www.w3.org/2000/svg">
</g>
<g xmlns="http://www.w3.org/2000/svg">
</g>
<g xmlns="http://www.w3.org/2000/svg">
</g>
<g xmlns="http://www.w3.org/2000/svg">
</g>
<g xmlns="http://www.w3.org/2000/svg">
</g>
<g xmlns="http://www.w3.org/2000/svg">
</g>
<g xmlns="http://www.w3.org/2000/svg">
</g>
<g xmlns="http://www.w3.org/2000/svg">
</g>
</g></svg>
